M48
;DRILL file {KiCad 4.0.1-stable} date 12/17/2015 10:37:35 AM
;FORMAT={-:-/ absolute / metric / decimal}
FMAT,2
METRIC,TZ
T1C0.635
T2C0.700
T3C0.750
T4C0.998
T5C1.016
%
G90
G05
M71
T1
X128.8Y-108.
X130.3Y-114.4
X131.8Y-111.8
X135.7Y-109.6
X137.2Y-106.2
X138.8Y-105.2
X138.8Y-114.8
X138.9Y-116.8
X139.6Y-113.3
X141.1Y-110.1
X142.5Y-110.4
X143.3Y-104.9
X146.5Y-108.3
T2
X146.5Y-111.6
X146.5Y-113.6
T4
X130.23Y-118.5
X132.77Y-118.5
X135.23Y-118.5
X137.77Y-118.5
T5
X133.36Y-102.55
X135.9Y-102.55
X149.8Y-104.7
X149.8Y-107.24
T3
X125.Y-106.75G85X125.Y-106.85
G05
X125.Y-111.75G85X125.Y-111.85
G05
T0
M30
