G04 #@! TF.FileFunction,Soldermask,Top*
%FSLAX46Y46*%
G04 Gerber Fmt 4.6, Leading zero omitted, Abs format (unit mm)*
G04 Created by KiCad (PCBNEW 4.0.1-stable) date 12/17/2015 10:37:29 AM*
%MOMM*%
G01*
G04 APERTURE LIST*
%ADD10C,0.100000*%
%ADD11O,1.506220X3.014980*%
%ADD12R,0.750000X1.200000*%
%ADD13R,0.750000X0.800000*%
%ADD14R,1.200000X0.750000*%
%ADD15R,1.350000X0.400000*%
%ADD16O,0.950000X1.250000*%
%ADD17R,1.550000X2.500000*%
%ADD18R,0.797560X0.797560*%
%ADD19R,1.700000X1.200000*%
%ADD20O,1.700000X1.200000*%
%ADD21R,0.500000X0.900000*%
%ADD22R,0.900000X0.500000*%
%ADD23R,2.032000X2.032000*%
%ADD24O,2.032000X2.032000*%
G04 APERTURE END LIST*
D10*
X152750000Y-119650000D02*
X152750000Y-120200000D01*
X152750000Y-98950000D02*
X152700000Y-98950000D01*
X152750000Y-119800000D02*
X152750000Y-98950000D01*
X121300000Y-121500000D02*
X151500000Y-121500000D01*
X119500000Y-119300000D02*
X119500000Y-99500000D01*
X121500000Y-97500000D02*
X151500000Y-97500000D01*
X152750000Y-99250000D02*
G75*
G03X151500000Y-97500000I-1500000J250000D01*
G01*
X151500000Y-121500000D02*
G75*
G03X152750000Y-119750000I-250000J1500000D01*
G01*
X119500000Y-119250000D02*
G75*
G03X121250000Y-121500000I2000000J-250000D01*
G01*
X121500000Y-97500000D02*
G75*
G03X119500000Y-99500000I0J-2000000D01*
G01*
D11*
X135230000Y-118500000D03*
X137770000Y-118500000D03*
X130230000Y-118500000D03*
X132770000Y-118500000D03*
D12*
X127500000Y-108050000D03*
X127500000Y-109950000D03*
X143700000Y-110350000D03*
X143700000Y-108450000D03*
D13*
X143600000Y-113850000D03*
X143600000Y-112350000D03*
D10*
G36*
X132451992Y-109578338D02*
X131921662Y-109048008D01*
X132487348Y-108482322D01*
X133017678Y-109012652D01*
X132451992Y-109578338D01*
X132451992Y-109578338D01*
G37*
G36*
X133512652Y-108517678D02*
X132982322Y-107987348D01*
X133548008Y-107421662D01*
X134078338Y-107951992D01*
X133512652Y-108517678D01*
X133512652Y-108517678D01*
G37*
D14*
X135350000Y-115600000D03*
X137250000Y-115600000D03*
X130250000Y-115500000D03*
X132150000Y-115500000D03*
D15*
X125000000Y-108000000D03*
X125000000Y-108650000D03*
X125000000Y-109300000D03*
X125000000Y-109950000D03*
X125000000Y-110600000D03*
D16*
X125000000Y-106800000D03*
X125000000Y-111800000D03*
D17*
X122300000Y-105000000D03*
X122300000Y-113500000D03*
D18*
X141800000Y-103850700D03*
X141800000Y-105349300D03*
D10*
G36*
X134851471Y-111168629D02*
X133578679Y-109895837D01*
X134144365Y-109330151D01*
X135417157Y-110602943D01*
X134851471Y-111168629D01*
X134851471Y-111168629D01*
G37*
G36*
X133720101Y-112300000D02*
X132447309Y-111027208D01*
X133012995Y-110461522D01*
X134285787Y-111734314D01*
X133720101Y-112300000D01*
X133720101Y-112300000D01*
G37*
G36*
X136368629Y-112148529D02*
X135095837Y-113421321D01*
X134530151Y-112855635D01*
X135802943Y-111582843D01*
X136368629Y-112148529D01*
X136368629Y-112148529D01*
G37*
G36*
X137500000Y-113279899D02*
X136227208Y-114552691D01*
X135661522Y-113987005D01*
X136934314Y-112714213D01*
X137500000Y-113279899D01*
X137500000Y-113279899D01*
G37*
D19*
X146500000Y-113600000D03*
D20*
X146500000Y-111600000D03*
D21*
X144750000Y-103900000D03*
X146250000Y-103900000D03*
D22*
X140000000Y-105350000D03*
X140000000Y-103850000D03*
D21*
X141850000Y-102100000D03*
X143350000Y-102100000D03*
X144750000Y-102100000D03*
X146250000Y-102100000D03*
D10*
G36*
X135611091Y-108525305D02*
X134974695Y-107888909D01*
X135328249Y-107535355D01*
X135964645Y-108171751D01*
X135611091Y-108525305D01*
X135611091Y-108525305D01*
G37*
G36*
X136671751Y-107464645D02*
X136035355Y-106828249D01*
X136388909Y-106474695D01*
X137025305Y-107111091D01*
X136671751Y-107464645D01*
X136671751Y-107464645D01*
G37*
G36*
X131111091Y-108025305D02*
X130474695Y-107388909D01*
X130828249Y-107035355D01*
X131464645Y-107671751D01*
X131111091Y-108025305D01*
X131111091Y-108025305D01*
G37*
G36*
X132171751Y-106964645D02*
X131535355Y-106328249D01*
X131888909Y-105974695D01*
X132525305Y-106611091D01*
X132171751Y-106964645D01*
X132171751Y-106964645D01*
G37*
G36*
X131225305Y-110288909D02*
X130588909Y-110925305D01*
X130235355Y-110571751D01*
X130871751Y-109935355D01*
X131225305Y-110288909D01*
X131225305Y-110288909D01*
G37*
G36*
X130164645Y-109228249D02*
X129528249Y-109864645D01*
X129174695Y-109511091D01*
X129811091Y-108874695D01*
X130164645Y-109228249D01*
X130164645Y-109228249D01*
G37*
D22*
X140200000Y-116850000D03*
X140200000Y-118350000D03*
D21*
X141850000Y-115600000D03*
X143350000Y-115600000D03*
D22*
X141800000Y-112450000D03*
X141800000Y-113950000D03*
D21*
X141850000Y-100000000D03*
X143350000Y-100000000D03*
X141850000Y-117500000D03*
X143350000Y-117500000D03*
D10*
G36*
X137984185Y-109032278D02*
X137348382Y-108396475D01*
X137524395Y-108220462D01*
X138160198Y-108856265D01*
X137984185Y-109032278D01*
X137984185Y-109032278D01*
G37*
G36*
X137702205Y-109314258D02*
X137066402Y-108678455D01*
X137242415Y-108502442D01*
X137878218Y-109138245D01*
X137702205Y-109314258D01*
X137702205Y-109314258D01*
G37*
G36*
X137420225Y-109596238D02*
X136784422Y-108960435D01*
X136960435Y-108784422D01*
X137596238Y-109420225D01*
X137420225Y-109596238D01*
X137420225Y-109596238D01*
G37*
G36*
X137138245Y-109878218D02*
X136502442Y-109242415D01*
X136678455Y-109066402D01*
X137314258Y-109702205D01*
X137138245Y-109878218D01*
X137138245Y-109878218D01*
G37*
G36*
X136856265Y-110160198D02*
X136220462Y-109524395D01*
X136396475Y-109348382D01*
X137032278Y-109984185D01*
X136856265Y-110160198D01*
X136856265Y-110160198D01*
G37*
G36*
X137032278Y-110515815D02*
X136396475Y-111151618D01*
X136220462Y-110975605D01*
X136856265Y-110339802D01*
X137032278Y-110515815D01*
X137032278Y-110515815D01*
G37*
G36*
X137314258Y-110797795D02*
X136678455Y-111433598D01*
X136502442Y-111257585D01*
X137138245Y-110621782D01*
X137314258Y-110797795D01*
X137314258Y-110797795D01*
G37*
G36*
X137596238Y-111079775D02*
X136960435Y-111715578D01*
X136784422Y-111539565D01*
X137420225Y-110903762D01*
X137596238Y-111079775D01*
X137596238Y-111079775D01*
G37*
G36*
X137878218Y-111361755D02*
X137242415Y-111997558D01*
X137066402Y-111821545D01*
X137702205Y-111185742D01*
X137878218Y-111361755D01*
X137878218Y-111361755D01*
G37*
G36*
X138160198Y-111643735D02*
X137524395Y-112279538D01*
X137348382Y-112103525D01*
X137984185Y-111467722D01*
X138160198Y-111643735D01*
X138160198Y-111643735D01*
G37*
G36*
X138515815Y-111467722D02*
X139151618Y-112103525D01*
X138975605Y-112279538D01*
X138339802Y-111643735D01*
X138515815Y-111467722D01*
X138515815Y-111467722D01*
G37*
G36*
X138797795Y-111185742D02*
X139433598Y-111821545D01*
X139257585Y-111997558D01*
X138621782Y-111361755D01*
X138797795Y-111185742D01*
X138797795Y-111185742D01*
G37*
G36*
X139079775Y-110903762D02*
X139715578Y-111539565D01*
X139539565Y-111715578D01*
X138903762Y-111079775D01*
X139079775Y-110903762D01*
X139079775Y-110903762D01*
G37*
G36*
X139361755Y-110621782D02*
X139997558Y-111257585D01*
X139821545Y-111433598D01*
X139185742Y-110797795D01*
X139361755Y-110621782D01*
X139361755Y-110621782D01*
G37*
G36*
X139643735Y-110339802D02*
X140279538Y-110975605D01*
X140103525Y-111151618D01*
X139467722Y-110515815D01*
X139643735Y-110339802D01*
X139643735Y-110339802D01*
G37*
G36*
X139467722Y-109984185D02*
X140103525Y-109348382D01*
X140279538Y-109524395D01*
X139643735Y-110160198D01*
X139467722Y-109984185D01*
X139467722Y-109984185D01*
G37*
G36*
X139185742Y-109702205D02*
X139821545Y-109066402D01*
X139997558Y-109242415D01*
X139361755Y-109878218D01*
X139185742Y-109702205D01*
X139185742Y-109702205D01*
G37*
G36*
X138903762Y-109420225D02*
X139539565Y-108784422D01*
X139715578Y-108960435D01*
X139079775Y-109596238D01*
X138903762Y-109420225D01*
X138903762Y-109420225D01*
G37*
G36*
X138621782Y-109138245D02*
X139257585Y-108502442D01*
X139433598Y-108678455D01*
X138797795Y-109314258D01*
X138621782Y-109138245D01*
X138621782Y-109138245D01*
G37*
G36*
X138339802Y-108856265D02*
X138975605Y-108220462D01*
X139151618Y-108396475D01*
X138515815Y-109032278D01*
X138339802Y-108856265D01*
X138339802Y-108856265D01*
G37*
G36*
X138250000Y-109172369D02*
X139327631Y-110250000D01*
X138250000Y-111327631D01*
X137172369Y-110250000D01*
X138250000Y-109172369D01*
X138250000Y-109172369D01*
G37*
G36*
X128888909Y-102974695D02*
X129525305Y-103611091D01*
X129171751Y-103964645D01*
X128535355Y-103328249D01*
X128888909Y-102974695D01*
X128888909Y-102974695D01*
G37*
G36*
X127828249Y-104035355D02*
X128464645Y-104671751D01*
X128111091Y-105025305D01*
X127474695Y-104388909D01*
X127828249Y-104035355D01*
X127828249Y-104035355D01*
G37*
G36*
X130388909Y-104474695D02*
X131025305Y-105111091D01*
X130671751Y-105464645D01*
X130035355Y-104828249D01*
X130388909Y-104474695D01*
X130388909Y-104474695D01*
G37*
G36*
X129328249Y-105535355D02*
X129964645Y-106171751D01*
X129611091Y-106525305D01*
X128974695Y-105888909D01*
X129328249Y-105535355D01*
X129328249Y-105535355D01*
G37*
D23*
X149800000Y-104700000D03*
D24*
X149800000Y-107240000D03*
D23*
X135900000Y-102550000D03*
D24*
X133360000Y-102550000D03*
M02*
