G04 #@! TF.FileFunction,Copper,L2,Bot,Signal*
%FSLAX46Y46*%
G04 Gerber Fmt 4.6, Leading zero omitted, Abs format (unit mm)*
G04 Created by KiCad (PCBNEW 4.0.1-stable) date 12/17/2015 10:37:29 AM*
%MOMM*%
G01*
G04 APERTURE LIST*
%ADD10C,0.100000*%
%ADD11C,0.250000*%
%ADD12O,1.506220X3.014980*%
%ADD13O,0.950000X1.250000*%
%ADD14R,1.700000X1.200000*%
%ADD15O,1.700000X1.200000*%
%ADD16C,4.064000*%
%ADD17R,2.032000X2.032000*%
%ADD18O,2.032000X2.032000*%
%ADD19C,0.889000*%
%ADD20C,0.254000*%
%ADD21C,0.508000*%
G04 APERTURE END LIST*
D10*
X152750000Y-119650000D02*
X152750000Y-120200000D01*
X152750000Y-98950000D02*
X152700000Y-98950000D01*
X152750000Y-119800000D02*
X152750000Y-98950000D01*
X121300000Y-121500000D02*
X151500000Y-121500000D01*
X119500000Y-119300000D02*
X119500000Y-99500000D01*
X121500000Y-97500000D02*
X151500000Y-97500000D01*
X152750000Y-99250000D02*
G75*
G03X151500000Y-97500000I-1500000J250000D01*
G01*
X151500000Y-121500000D02*
G75*
G03X152750000Y-119750000I-250000J1500000D01*
G01*
X119500000Y-119250000D02*
G75*
G03X121250000Y-121500000I2000000J-250000D01*
G01*
X121500000Y-97500000D02*
G75*
G03X119500000Y-99500000I0J-2000000D01*
G01*
D11*
X146314286Y-120504762D02*
X146171429Y-120552381D01*
X145933333Y-120552381D01*
X145838095Y-120504762D01*
X145790476Y-120457143D01*
X145742857Y-120361905D01*
X145742857Y-120266667D01*
X145790476Y-120171429D01*
X145838095Y-120123810D01*
X145933333Y-120076190D01*
X146123810Y-120028571D01*
X146219048Y-119980952D01*
X146266667Y-119933333D01*
X146314286Y-119838095D01*
X146314286Y-119742857D01*
X146266667Y-119647619D01*
X146219048Y-119600000D01*
X146123810Y-119552381D01*
X145885714Y-119552381D01*
X145742857Y-119600000D01*
X145123810Y-119552381D02*
X144933333Y-119552381D01*
X144838095Y-119600000D01*
X144742857Y-119695238D01*
X144695238Y-119885714D01*
X144695238Y-120219048D01*
X144742857Y-120409524D01*
X144838095Y-120504762D01*
X144933333Y-120552381D01*
X145123810Y-120552381D01*
X145219048Y-120504762D01*
X145314286Y-120409524D01*
X145361905Y-120219048D01*
X145361905Y-119885714D01*
X145314286Y-119695238D01*
X145219048Y-119600000D01*
X145123810Y-119552381D01*
X143790476Y-120552381D02*
X144266667Y-120552381D01*
X144266667Y-119552381D01*
X143457143Y-120552381D02*
X143457143Y-119552381D01*
X143219048Y-119552381D01*
X143076190Y-119600000D01*
X142980952Y-119695238D01*
X142933333Y-119790476D01*
X142885714Y-119980952D01*
X142885714Y-120123810D01*
X142933333Y-120314286D01*
X142980952Y-120409524D01*
X143076190Y-120504762D01*
X143219048Y-120552381D01*
X143457143Y-120552381D01*
D12*
X135230000Y-118500000D03*
X137770000Y-118500000D03*
X130230000Y-118500000D03*
X132770000Y-118500000D03*
D13*
X125000000Y-106800000D03*
X125000000Y-111800000D03*
D14*
X146500000Y-113600000D03*
D15*
X146500000Y-111600000D03*
D16*
X122500000Y-100500000D03*
X149900000Y-100500000D03*
X122500000Y-118500000D03*
X149800000Y-118500000D03*
D17*
X149800000Y-104700000D03*
D18*
X149800000Y-107240000D03*
D17*
X135900000Y-102550000D03*
D18*
X133360000Y-102550000D03*
D19*
X138800000Y-105200000D03*
X128800000Y-108000000D03*
X146500000Y-108300000D03*
X143300000Y-104900000D03*
X131800000Y-111800000D03*
X142500000Y-110400000D03*
X137200000Y-106200000D03*
X130300000Y-114400000D03*
X138900000Y-116800000D03*
X138800000Y-114800000D03*
X141100000Y-110100000D03*
X135700000Y-109600000D03*
X139600000Y-113300000D03*
D20*
X131600000Y-105200000D02*
X138800000Y-105200000D01*
X128800000Y-108000000D02*
X131600000Y-105200000D01*
X146500000Y-108300000D02*
X148740000Y-108300000D01*
X148740000Y-108300000D02*
X149800000Y-107240000D01*
X146500000Y-111600000D02*
X146500000Y-108300000D01*
D21*
X132770000Y-119000000D02*
X132770000Y-117230000D01*
X132770000Y-117230000D02*
X133800000Y-116200000D01*
X133800000Y-116200000D02*
X137200000Y-116200000D01*
X137200000Y-116200000D02*
X137770000Y-116770000D01*
X137770000Y-116770000D02*
X137770000Y-119000000D01*
X137770000Y-119000000D02*
X137770000Y-116770000D01*
X133800000Y-116200000D02*
X132770000Y-117230000D01*
X137200000Y-116200000D02*
X133800000Y-116200000D01*
X137770000Y-116770000D02*
X137200000Y-116200000D01*
D20*
X143300000Y-104900000D02*
X143500000Y-105100000D01*
X143500000Y-105100000D02*
X146100000Y-105100000D01*
X146100000Y-105100000D02*
X146500000Y-105500000D01*
X146500000Y-105500000D02*
X146500000Y-108300000D01*
X135500000Y-106000000D02*
X137000000Y-106000000D01*
X137000000Y-106000000D02*
X137200000Y-106200000D01*
X134400000Y-107100000D02*
X135500000Y-106000000D01*
X134400000Y-109200000D02*
X134400000Y-107100000D01*
X131800000Y-111800000D02*
X134400000Y-109200000D01*
X138300000Y-106200000D02*
X137200000Y-106200000D01*
X142500000Y-110400000D02*
X138300000Y-106200000D01*
X136500000Y-114400000D02*
X130300000Y-114400000D01*
X138900000Y-116800000D02*
X136500000Y-114400000D01*
X138800000Y-114800000D02*
X138900000Y-114900000D01*
X138900000Y-114900000D02*
X138900000Y-116800000D01*
X139500000Y-111100000D02*
X141100000Y-110100000D01*
X137200000Y-111100000D02*
X139500000Y-111100000D01*
X135700000Y-109600000D02*
X137200000Y-111100000D01*
X133360000Y-102550000D02*
X128150000Y-102550000D01*
X129350000Y-113300000D02*
X139600000Y-113300000D01*
X127250000Y-111200000D02*
X129350000Y-113300000D01*
X127250000Y-103450000D02*
X127250000Y-111200000D01*
X128150000Y-102550000D02*
X127250000Y-103450000D01*
G36*
X148391239Y-98237709D02*
X147640345Y-98987293D01*
X147233464Y-99967173D01*
X147232538Y-101028172D01*
X147637709Y-102008761D01*
X148387293Y-102759655D01*
X149054155Y-103036560D01*
X148784000Y-103036560D01*
X148548683Y-103080838D01*
X148332559Y-103219910D01*
X148187569Y-103432110D01*
X148136560Y-103684000D01*
X148136560Y-105716000D01*
X148180838Y-105951317D01*
X148319910Y-106167441D01*
X148482948Y-106278840D01*
X148393615Y-106375182D01*
X148194025Y-106857056D01*
X148313164Y-107113000D01*
X149673000Y-107113000D01*
X149673000Y-107093000D01*
X149927000Y-107093000D01*
X149927000Y-107113000D01*
X151286836Y-107113000D01*
X151405975Y-106857056D01*
X151206385Y-106375182D01*
X151115903Y-106277602D01*
X151267441Y-106180090D01*
X151412431Y-105967890D01*
X151463440Y-105716000D01*
X151463440Y-103684000D01*
X151419162Y-103448683D01*
X151280090Y-103232559D01*
X151067890Y-103087569D01*
X150816000Y-103036560D01*
X150744979Y-103036560D01*
X151408761Y-102762291D01*
X152065000Y-102107197D01*
X152065000Y-116997795D01*
X152062291Y-116991239D01*
X151312707Y-116240345D01*
X150332827Y-115833464D01*
X149271828Y-115832538D01*
X148291239Y-116237709D01*
X147540345Y-116987293D01*
X147133464Y-117967173D01*
X147133095Y-118390000D01*
X141935238Y-118390000D01*
X141935238Y-120815000D01*
X123881195Y-120815000D01*
X124008761Y-120762291D01*
X124759655Y-120012707D01*
X125166536Y-119032827D01*
X125167462Y-117971828D01*
X125056652Y-117703646D01*
X128841890Y-117703646D01*
X128841890Y-119296354D01*
X128947554Y-119827561D01*
X129248458Y-120277896D01*
X129698793Y-120578800D01*
X130230000Y-120684464D01*
X130761207Y-120578800D01*
X131211542Y-120277896D01*
X131512446Y-119827561D01*
X131513016Y-119824694D01*
X131536154Y-119902919D01*
X131878260Y-120325724D01*
X132356125Y-120585427D01*
X132428326Y-120599783D01*
X132643000Y-120477162D01*
X132643000Y-118627000D01*
X132623000Y-118627000D01*
X132623000Y-118373000D01*
X132643000Y-118373000D01*
X132643000Y-116522838D01*
X132428326Y-116400217D01*
X132356125Y-116414573D01*
X131878260Y-116674276D01*
X131536154Y-117097081D01*
X131513016Y-117175306D01*
X131512446Y-117172439D01*
X131211542Y-116722104D01*
X130761207Y-116421200D01*
X130230000Y-116315536D01*
X129698793Y-116421200D01*
X129248458Y-116722104D01*
X128947554Y-117172439D01*
X128841890Y-117703646D01*
X125056652Y-117703646D01*
X124762291Y-116991239D01*
X124012707Y-116240345D01*
X123032827Y-115833464D01*
X121971828Y-115832538D01*
X120991239Y-116237709D01*
X120240345Y-116987293D01*
X120185000Y-117120579D01*
X120185000Y-112101131D01*
X123898771Y-112101131D01*
X124040432Y-112511049D01*
X124328179Y-112835552D01*
X124702062Y-113019268D01*
X124873000Y-112892734D01*
X124873000Y-111927000D01*
X125127000Y-111927000D01*
X125127000Y-112892734D01*
X125297938Y-113019268D01*
X125671821Y-112835552D01*
X125959568Y-112511049D01*
X126101229Y-112101131D01*
X125952563Y-111927000D01*
X125127000Y-111927000D01*
X124873000Y-111927000D01*
X124047437Y-111927000D01*
X123898771Y-112101131D01*
X120185000Y-112101131D01*
X120185000Y-111498869D01*
X123898771Y-111498869D01*
X124047437Y-111673000D01*
X124873000Y-111673000D01*
X124873000Y-110707266D01*
X125127000Y-110707266D01*
X125127000Y-111673000D01*
X125952563Y-111673000D01*
X126101229Y-111498869D01*
X125959568Y-111088951D01*
X125671821Y-110764448D01*
X125297938Y-110580732D01*
X125127000Y-110707266D01*
X124873000Y-110707266D01*
X124702062Y-110580732D01*
X124328179Y-110764448D01*
X124040432Y-111088951D01*
X123898771Y-111498869D01*
X120185000Y-111498869D01*
X120185000Y-107101131D01*
X123898771Y-107101131D01*
X124040432Y-107511049D01*
X124328179Y-107835552D01*
X124702062Y-108019268D01*
X124873000Y-107892734D01*
X124873000Y-106927000D01*
X125127000Y-106927000D01*
X125127000Y-107892734D01*
X125297938Y-108019268D01*
X125671821Y-107835552D01*
X125959568Y-107511049D01*
X126101229Y-107101131D01*
X125952563Y-106927000D01*
X125127000Y-106927000D01*
X124873000Y-106927000D01*
X124047437Y-106927000D01*
X123898771Y-107101131D01*
X120185000Y-107101131D01*
X120185000Y-106498869D01*
X123898771Y-106498869D01*
X124047437Y-106673000D01*
X124873000Y-106673000D01*
X124873000Y-105707266D01*
X125127000Y-105707266D01*
X125127000Y-106673000D01*
X125952563Y-106673000D01*
X126101229Y-106498869D01*
X125959568Y-106088951D01*
X125671821Y-105764448D01*
X125297938Y-105580732D01*
X125127000Y-105707266D01*
X124873000Y-105707266D01*
X124702062Y-105580732D01*
X124328179Y-105764448D01*
X124040432Y-106088951D01*
X123898771Y-106498869D01*
X120185000Y-106498869D01*
X120185000Y-103450000D01*
X126488000Y-103450000D01*
X126488000Y-111200000D01*
X126546004Y-111491605D01*
X126644367Y-111638815D01*
X126711185Y-111738815D01*
X128811184Y-113838815D01*
X129058395Y-114003996D01*
X129277474Y-114047574D01*
X129220687Y-114184332D01*
X129220313Y-114613784D01*
X129384311Y-115010689D01*
X129687714Y-115314622D01*
X130084332Y-115479313D01*
X130513784Y-115479687D01*
X130910689Y-115315689D01*
X131064646Y-115162000D01*
X136184370Y-115162000D01*
X137423538Y-116401169D01*
X137356125Y-116414573D01*
X136878260Y-116674276D01*
X136536154Y-117097081D01*
X136513016Y-117175306D01*
X136512446Y-117172439D01*
X136211542Y-116722104D01*
X135761207Y-116421200D01*
X135230000Y-116315536D01*
X134698793Y-116421200D01*
X134248458Y-116722104D01*
X134000593Y-117093061D01*
X133661740Y-116674276D01*
X133183875Y-116414573D01*
X133111674Y-116400217D01*
X132897000Y-116522838D01*
X132897000Y-118373000D01*
X132917000Y-118373000D01*
X132917000Y-118627000D01*
X132897000Y-118627000D01*
X132897000Y-120477162D01*
X133111674Y-120599783D01*
X133183875Y-120585427D01*
X133661740Y-120325724D01*
X134000593Y-119906939D01*
X134248458Y-120277896D01*
X134698793Y-120578800D01*
X135230000Y-120684464D01*
X135761207Y-120578800D01*
X136211542Y-120277896D01*
X136512446Y-119827561D01*
X136513016Y-119824694D01*
X136536154Y-119902919D01*
X136878260Y-120325724D01*
X137356125Y-120585427D01*
X137428326Y-120599783D01*
X137643000Y-120477162D01*
X137643000Y-118627000D01*
X137897000Y-118627000D01*
X137897000Y-120477162D01*
X138111674Y-120599783D01*
X138183875Y-120585427D01*
X138661740Y-120325724D01*
X139003846Y-119902919D01*
X139158110Y-119381380D01*
X139158110Y-118627000D01*
X137897000Y-118627000D01*
X137643000Y-118627000D01*
X137623000Y-118627000D01*
X137623000Y-118373000D01*
X137643000Y-118373000D01*
X137643000Y-118353000D01*
X137897000Y-118353000D01*
X137897000Y-118373000D01*
X139158110Y-118373000D01*
X139158110Y-117861372D01*
X139510689Y-117715689D01*
X139814622Y-117412286D01*
X139979313Y-117015668D01*
X139979687Y-116586216D01*
X139815689Y-116189311D01*
X139662000Y-116035354D01*
X139662000Y-115464816D01*
X139714622Y-115412286D01*
X139879313Y-115015668D01*
X139879687Y-114586216D01*
X139794344Y-114379670D01*
X139813784Y-114379687D01*
X140210689Y-114215689D01*
X140514622Y-113912286D01*
X140679313Y-113515668D01*
X140679687Y-113086216D01*
X140644064Y-113000000D01*
X145002560Y-113000000D01*
X145002560Y-114200000D01*
X145046838Y-114435317D01*
X145185910Y-114651441D01*
X145398110Y-114796431D01*
X145650000Y-114847440D01*
X147350000Y-114847440D01*
X147585317Y-114803162D01*
X147801441Y-114664090D01*
X147946431Y-114451890D01*
X147997440Y-114200000D01*
X147997440Y-113000000D01*
X147953162Y-112764683D01*
X147814090Y-112548559D01*
X147661691Y-112444429D01*
X147681933Y-112429125D01*
X147928286Y-112009376D01*
X147943462Y-111917609D01*
X147818731Y-111727000D01*
X146627000Y-111727000D01*
X146627000Y-111747000D01*
X146373000Y-111747000D01*
X146373000Y-111727000D01*
X145181269Y-111727000D01*
X145056538Y-111917609D01*
X145071714Y-112009376D01*
X145318067Y-112429125D01*
X145339420Y-112445269D01*
X145198559Y-112535910D01*
X145053569Y-112748110D01*
X145002560Y-113000000D01*
X140644064Y-113000000D01*
X140515689Y-112689311D01*
X140212286Y-112385378D01*
X139815668Y-112220687D01*
X139386216Y-112220313D01*
X138989311Y-112384311D01*
X138835354Y-112538000D01*
X132588688Y-112538000D01*
X132714622Y-112412286D01*
X132879313Y-112015668D01*
X132879502Y-111798128D01*
X134691518Y-109986113D01*
X134784311Y-110210689D01*
X135087714Y-110514622D01*
X135484332Y-110679313D01*
X135701872Y-110679502D01*
X136661184Y-111638815D01*
X136810845Y-111738815D01*
X136908395Y-111803996D01*
X137200000Y-111862000D01*
X139500000Y-111862000D01*
X139562322Y-111849603D01*
X139625837Y-111851538D01*
X139706746Y-111820875D01*
X139791605Y-111803996D01*
X139844438Y-111768694D01*
X139903859Y-111746175D01*
X140840175Y-111160977D01*
X140884332Y-111179313D01*
X141313784Y-111179687D01*
X141624750Y-111051198D01*
X141887714Y-111314622D01*
X142284332Y-111479313D01*
X142713784Y-111479687D01*
X143110689Y-111315689D01*
X143144045Y-111282391D01*
X145056538Y-111282391D01*
X145181269Y-111473000D01*
X146373000Y-111473000D01*
X146373000Y-110517453D01*
X146627000Y-110517453D01*
X146627000Y-111473000D01*
X147818731Y-111473000D01*
X147943462Y-111282391D01*
X147928286Y-111190624D01*
X147681933Y-110770875D01*
X147293701Y-110477353D01*
X146822696Y-110354744D01*
X146627000Y-110517453D01*
X146373000Y-110517453D01*
X146177304Y-110354744D01*
X145706299Y-110477353D01*
X145318067Y-110770875D01*
X145071714Y-111190624D01*
X145056538Y-111282391D01*
X143144045Y-111282391D01*
X143414622Y-111012286D01*
X143579313Y-110615668D01*
X143579687Y-110186216D01*
X143415689Y-109789311D01*
X143112286Y-109485378D01*
X142715668Y-109320687D01*
X142498128Y-109320498D01*
X140800574Y-107622944D01*
X148194025Y-107622944D01*
X148393615Y-108104818D01*
X148831621Y-108577188D01*
X149417054Y-108845983D01*
X149673000Y-108727367D01*
X149673000Y-107367000D01*
X149927000Y-107367000D01*
X149927000Y-108727367D01*
X150182946Y-108845983D01*
X150768379Y-108577188D01*
X151206385Y-108104818D01*
X151405975Y-107622944D01*
X151286836Y-107367000D01*
X149927000Y-107367000D01*
X149673000Y-107367000D01*
X148313164Y-107367000D01*
X148194025Y-107622944D01*
X140800574Y-107622944D01*
X139327636Y-106150006D01*
X139410689Y-106115689D01*
X139714622Y-105812286D01*
X139879313Y-105415668D01*
X139879687Y-104986216D01*
X139715689Y-104589311D01*
X139412286Y-104285378D01*
X139015668Y-104120687D01*
X138586216Y-104120313D01*
X138189311Y-104284311D01*
X138035354Y-104438000D01*
X131600000Y-104438000D01*
X131308395Y-104496004D01*
X131171142Y-104587714D01*
X131061185Y-104661185D01*
X128801869Y-106920501D01*
X128586216Y-106920313D01*
X128189311Y-107084311D01*
X128012000Y-107261313D01*
X128012000Y-103765630D01*
X128465631Y-103312000D01*
X131900053Y-103312000D01*
X132192567Y-103749778D01*
X132728190Y-104107670D01*
X133360000Y-104233345D01*
X133991810Y-104107670D01*
X134328001Y-103883034D01*
X134345673Y-103925698D01*
X134524301Y-104104327D01*
X134757690Y-104201000D01*
X135614250Y-104201000D01*
X135773000Y-104042250D01*
X135773000Y-102677000D01*
X136027000Y-102677000D01*
X136027000Y-104042250D01*
X136185750Y-104201000D01*
X137042310Y-104201000D01*
X137275699Y-104104327D01*
X137454327Y-103925698D01*
X137551000Y-103692309D01*
X137551000Y-102835750D01*
X137392250Y-102677000D01*
X136027000Y-102677000D01*
X135773000Y-102677000D01*
X135753000Y-102677000D01*
X135753000Y-102423000D01*
X135773000Y-102423000D01*
X135773000Y-101057750D01*
X136027000Y-101057750D01*
X136027000Y-102423000D01*
X137392250Y-102423000D01*
X137551000Y-102264250D01*
X137551000Y-101407691D01*
X137454327Y-101174302D01*
X137275699Y-100995673D01*
X137042310Y-100899000D01*
X136185750Y-100899000D01*
X136027000Y-101057750D01*
X135773000Y-101057750D01*
X135614250Y-100899000D01*
X134757690Y-100899000D01*
X134524301Y-100995673D01*
X134345673Y-101174302D01*
X134328001Y-101216966D01*
X133991810Y-100992330D01*
X133360000Y-100866655D01*
X132728190Y-100992330D01*
X132192567Y-101350222D01*
X131900053Y-101788000D01*
X128150000Y-101788000D01*
X127858395Y-101846004D01*
X127611184Y-102011185D01*
X126711185Y-102911185D01*
X126546004Y-103158395D01*
X126488000Y-103450000D01*
X120185000Y-103450000D01*
X120185000Y-101881195D01*
X120237709Y-102008761D01*
X120987293Y-102759655D01*
X121967173Y-103166536D01*
X123028172Y-103167462D01*
X124008761Y-102762291D01*
X124759655Y-102012707D01*
X125166536Y-101032827D01*
X125167462Y-99971828D01*
X124762291Y-98991239D01*
X124012707Y-98240345D01*
X123879421Y-98185000D01*
X148518805Y-98185000D01*
X148391239Y-98237709D01*
X148391239Y-98237709D01*
G37*
X148391239Y-98237709D02*
X147640345Y-98987293D01*
X147233464Y-99967173D01*
X147232538Y-101028172D01*
X147637709Y-102008761D01*
X148387293Y-102759655D01*
X149054155Y-103036560D01*
X148784000Y-103036560D01*
X148548683Y-103080838D01*
X148332559Y-103219910D01*
X148187569Y-103432110D01*
X148136560Y-103684000D01*
X148136560Y-105716000D01*
X148180838Y-105951317D01*
X148319910Y-106167441D01*
X148482948Y-106278840D01*
X148393615Y-106375182D01*
X148194025Y-106857056D01*
X148313164Y-107113000D01*
X149673000Y-107113000D01*
X149673000Y-107093000D01*
X149927000Y-107093000D01*
X149927000Y-107113000D01*
X151286836Y-107113000D01*
X151405975Y-106857056D01*
X151206385Y-106375182D01*
X151115903Y-106277602D01*
X151267441Y-106180090D01*
X151412431Y-105967890D01*
X151463440Y-105716000D01*
X151463440Y-103684000D01*
X151419162Y-103448683D01*
X151280090Y-103232559D01*
X151067890Y-103087569D01*
X150816000Y-103036560D01*
X150744979Y-103036560D01*
X151408761Y-102762291D01*
X152065000Y-102107197D01*
X152065000Y-116997795D01*
X152062291Y-116991239D01*
X151312707Y-116240345D01*
X150332827Y-115833464D01*
X149271828Y-115832538D01*
X148291239Y-116237709D01*
X147540345Y-116987293D01*
X147133464Y-117967173D01*
X147133095Y-118390000D01*
X141935238Y-118390000D01*
X141935238Y-120815000D01*
X123881195Y-120815000D01*
X124008761Y-120762291D01*
X124759655Y-120012707D01*
X125166536Y-119032827D01*
X125167462Y-117971828D01*
X125056652Y-117703646D01*
X128841890Y-117703646D01*
X128841890Y-119296354D01*
X128947554Y-119827561D01*
X129248458Y-120277896D01*
X129698793Y-120578800D01*
X130230000Y-120684464D01*
X130761207Y-120578800D01*
X131211542Y-120277896D01*
X131512446Y-119827561D01*
X131513016Y-119824694D01*
X131536154Y-119902919D01*
X131878260Y-120325724D01*
X132356125Y-120585427D01*
X132428326Y-120599783D01*
X132643000Y-120477162D01*
X132643000Y-118627000D01*
X132623000Y-118627000D01*
X132623000Y-118373000D01*
X132643000Y-118373000D01*
X132643000Y-116522838D01*
X132428326Y-116400217D01*
X132356125Y-116414573D01*
X131878260Y-116674276D01*
X131536154Y-117097081D01*
X131513016Y-117175306D01*
X131512446Y-117172439D01*
X131211542Y-116722104D01*
X130761207Y-116421200D01*
X130230000Y-116315536D01*
X129698793Y-116421200D01*
X129248458Y-116722104D01*
X128947554Y-117172439D01*
X128841890Y-117703646D01*
X125056652Y-117703646D01*
X124762291Y-116991239D01*
X124012707Y-116240345D01*
X123032827Y-115833464D01*
X121971828Y-115832538D01*
X120991239Y-116237709D01*
X120240345Y-116987293D01*
X120185000Y-117120579D01*
X120185000Y-112101131D01*
X123898771Y-112101131D01*
X124040432Y-112511049D01*
X124328179Y-112835552D01*
X124702062Y-113019268D01*
X124873000Y-112892734D01*
X124873000Y-111927000D01*
X125127000Y-111927000D01*
X125127000Y-112892734D01*
X125297938Y-113019268D01*
X125671821Y-112835552D01*
X125959568Y-112511049D01*
X126101229Y-112101131D01*
X125952563Y-111927000D01*
X125127000Y-111927000D01*
X124873000Y-111927000D01*
X124047437Y-111927000D01*
X123898771Y-112101131D01*
X120185000Y-112101131D01*
X120185000Y-111498869D01*
X123898771Y-111498869D01*
X124047437Y-111673000D01*
X124873000Y-111673000D01*
X124873000Y-110707266D01*
X125127000Y-110707266D01*
X125127000Y-111673000D01*
X125952563Y-111673000D01*
X126101229Y-111498869D01*
X125959568Y-111088951D01*
X125671821Y-110764448D01*
X125297938Y-110580732D01*
X125127000Y-110707266D01*
X124873000Y-110707266D01*
X124702062Y-110580732D01*
X124328179Y-110764448D01*
X124040432Y-111088951D01*
X123898771Y-111498869D01*
X120185000Y-111498869D01*
X120185000Y-107101131D01*
X123898771Y-107101131D01*
X124040432Y-107511049D01*
X124328179Y-107835552D01*
X124702062Y-108019268D01*
X124873000Y-107892734D01*
X124873000Y-106927000D01*
X125127000Y-106927000D01*
X125127000Y-107892734D01*
X125297938Y-108019268D01*
X125671821Y-107835552D01*
X125959568Y-107511049D01*
X126101229Y-107101131D01*
X125952563Y-106927000D01*
X125127000Y-106927000D01*
X124873000Y-106927000D01*
X124047437Y-106927000D01*
X123898771Y-107101131D01*
X120185000Y-107101131D01*
X120185000Y-106498869D01*
X123898771Y-106498869D01*
X124047437Y-106673000D01*
X124873000Y-106673000D01*
X124873000Y-105707266D01*
X125127000Y-105707266D01*
X125127000Y-106673000D01*
X125952563Y-106673000D01*
X126101229Y-106498869D01*
X125959568Y-106088951D01*
X125671821Y-105764448D01*
X125297938Y-105580732D01*
X125127000Y-105707266D01*
X124873000Y-105707266D01*
X124702062Y-105580732D01*
X124328179Y-105764448D01*
X124040432Y-106088951D01*
X123898771Y-106498869D01*
X120185000Y-106498869D01*
X120185000Y-103450000D01*
X126488000Y-103450000D01*
X126488000Y-111200000D01*
X126546004Y-111491605D01*
X126644367Y-111638815D01*
X126711185Y-111738815D01*
X128811184Y-113838815D01*
X129058395Y-114003996D01*
X129277474Y-114047574D01*
X129220687Y-114184332D01*
X129220313Y-114613784D01*
X129384311Y-115010689D01*
X129687714Y-115314622D01*
X130084332Y-115479313D01*
X130513784Y-115479687D01*
X130910689Y-115315689D01*
X131064646Y-115162000D01*
X136184370Y-115162000D01*
X137423538Y-116401169D01*
X137356125Y-116414573D01*
X136878260Y-116674276D01*
X136536154Y-117097081D01*
X136513016Y-117175306D01*
X136512446Y-117172439D01*
X136211542Y-116722104D01*
X135761207Y-116421200D01*
X135230000Y-116315536D01*
X134698793Y-116421200D01*
X134248458Y-116722104D01*
X134000593Y-117093061D01*
X133661740Y-116674276D01*
X133183875Y-116414573D01*
X133111674Y-116400217D01*
X132897000Y-116522838D01*
X132897000Y-118373000D01*
X132917000Y-118373000D01*
X132917000Y-118627000D01*
X132897000Y-118627000D01*
X132897000Y-120477162D01*
X133111674Y-120599783D01*
X133183875Y-120585427D01*
X133661740Y-120325724D01*
X134000593Y-119906939D01*
X134248458Y-120277896D01*
X134698793Y-120578800D01*
X135230000Y-120684464D01*
X135761207Y-120578800D01*
X136211542Y-120277896D01*
X136512446Y-119827561D01*
X136513016Y-119824694D01*
X136536154Y-119902919D01*
X136878260Y-120325724D01*
X137356125Y-120585427D01*
X137428326Y-120599783D01*
X137643000Y-120477162D01*
X137643000Y-118627000D01*
X137897000Y-118627000D01*
X137897000Y-120477162D01*
X138111674Y-120599783D01*
X138183875Y-120585427D01*
X138661740Y-120325724D01*
X139003846Y-119902919D01*
X139158110Y-119381380D01*
X139158110Y-118627000D01*
X137897000Y-118627000D01*
X137643000Y-118627000D01*
X137623000Y-118627000D01*
X137623000Y-118373000D01*
X137643000Y-118373000D01*
X137643000Y-118353000D01*
X137897000Y-118353000D01*
X137897000Y-118373000D01*
X139158110Y-118373000D01*
X139158110Y-117861372D01*
X139510689Y-117715689D01*
X139814622Y-117412286D01*
X139979313Y-117015668D01*
X139979687Y-116586216D01*
X139815689Y-116189311D01*
X139662000Y-116035354D01*
X139662000Y-115464816D01*
X139714622Y-115412286D01*
X139879313Y-115015668D01*
X139879687Y-114586216D01*
X139794344Y-114379670D01*
X139813784Y-114379687D01*
X140210689Y-114215689D01*
X140514622Y-113912286D01*
X140679313Y-113515668D01*
X140679687Y-113086216D01*
X140644064Y-113000000D01*
X145002560Y-113000000D01*
X145002560Y-114200000D01*
X145046838Y-114435317D01*
X145185910Y-114651441D01*
X145398110Y-114796431D01*
X145650000Y-114847440D01*
X147350000Y-114847440D01*
X147585317Y-114803162D01*
X147801441Y-114664090D01*
X147946431Y-114451890D01*
X147997440Y-114200000D01*
X147997440Y-113000000D01*
X147953162Y-112764683D01*
X147814090Y-112548559D01*
X147661691Y-112444429D01*
X147681933Y-112429125D01*
X147928286Y-112009376D01*
X147943462Y-111917609D01*
X147818731Y-111727000D01*
X146627000Y-111727000D01*
X146627000Y-111747000D01*
X146373000Y-111747000D01*
X146373000Y-111727000D01*
X145181269Y-111727000D01*
X145056538Y-111917609D01*
X145071714Y-112009376D01*
X145318067Y-112429125D01*
X145339420Y-112445269D01*
X145198559Y-112535910D01*
X145053569Y-112748110D01*
X145002560Y-113000000D01*
X140644064Y-113000000D01*
X140515689Y-112689311D01*
X140212286Y-112385378D01*
X139815668Y-112220687D01*
X139386216Y-112220313D01*
X138989311Y-112384311D01*
X138835354Y-112538000D01*
X132588688Y-112538000D01*
X132714622Y-112412286D01*
X132879313Y-112015668D01*
X132879502Y-111798128D01*
X134691518Y-109986113D01*
X134784311Y-110210689D01*
X135087714Y-110514622D01*
X135484332Y-110679313D01*
X135701872Y-110679502D01*
X136661184Y-111638815D01*
X136810845Y-111738815D01*
X136908395Y-111803996D01*
X137200000Y-111862000D01*
X139500000Y-111862000D01*
X139562322Y-111849603D01*
X139625837Y-111851538D01*
X139706746Y-111820875D01*
X139791605Y-111803996D01*
X139844438Y-111768694D01*
X139903859Y-111746175D01*
X140840175Y-111160977D01*
X140884332Y-111179313D01*
X141313784Y-111179687D01*
X141624750Y-111051198D01*
X141887714Y-111314622D01*
X142284332Y-111479313D01*
X142713784Y-111479687D01*
X143110689Y-111315689D01*
X143144045Y-111282391D01*
X145056538Y-111282391D01*
X145181269Y-111473000D01*
X146373000Y-111473000D01*
X146373000Y-110517453D01*
X146627000Y-110517453D01*
X146627000Y-111473000D01*
X147818731Y-111473000D01*
X147943462Y-111282391D01*
X147928286Y-111190624D01*
X147681933Y-110770875D01*
X147293701Y-110477353D01*
X146822696Y-110354744D01*
X146627000Y-110517453D01*
X146373000Y-110517453D01*
X146177304Y-110354744D01*
X145706299Y-110477353D01*
X145318067Y-110770875D01*
X145071714Y-111190624D01*
X145056538Y-111282391D01*
X143144045Y-111282391D01*
X143414622Y-111012286D01*
X143579313Y-110615668D01*
X143579687Y-110186216D01*
X143415689Y-109789311D01*
X143112286Y-109485378D01*
X142715668Y-109320687D01*
X142498128Y-109320498D01*
X140800574Y-107622944D01*
X148194025Y-107622944D01*
X148393615Y-108104818D01*
X148831621Y-108577188D01*
X149417054Y-108845983D01*
X149673000Y-108727367D01*
X149673000Y-107367000D01*
X149927000Y-107367000D01*
X149927000Y-108727367D01*
X150182946Y-108845983D01*
X150768379Y-108577188D01*
X151206385Y-108104818D01*
X151405975Y-107622944D01*
X151286836Y-107367000D01*
X149927000Y-107367000D01*
X149673000Y-107367000D01*
X148313164Y-107367000D01*
X148194025Y-107622944D01*
X140800574Y-107622944D01*
X139327636Y-106150006D01*
X139410689Y-106115689D01*
X139714622Y-105812286D01*
X139879313Y-105415668D01*
X139879687Y-104986216D01*
X139715689Y-104589311D01*
X139412286Y-104285378D01*
X139015668Y-104120687D01*
X138586216Y-104120313D01*
X138189311Y-104284311D01*
X138035354Y-104438000D01*
X131600000Y-104438000D01*
X131308395Y-104496004D01*
X131171142Y-104587714D01*
X131061185Y-104661185D01*
X128801869Y-106920501D01*
X128586216Y-106920313D01*
X128189311Y-107084311D01*
X128012000Y-107261313D01*
X128012000Y-103765630D01*
X128465631Y-103312000D01*
X131900053Y-103312000D01*
X132192567Y-103749778D01*
X132728190Y-104107670D01*
X133360000Y-104233345D01*
X133991810Y-104107670D01*
X134328001Y-103883034D01*
X134345673Y-103925698D01*
X134524301Y-104104327D01*
X134757690Y-104201000D01*
X135614250Y-104201000D01*
X135773000Y-104042250D01*
X135773000Y-102677000D01*
X136027000Y-102677000D01*
X136027000Y-104042250D01*
X136185750Y-104201000D01*
X137042310Y-104201000D01*
X137275699Y-104104327D01*
X137454327Y-103925698D01*
X137551000Y-103692309D01*
X137551000Y-102835750D01*
X137392250Y-102677000D01*
X136027000Y-102677000D01*
X135773000Y-102677000D01*
X135753000Y-102677000D01*
X135753000Y-102423000D01*
X135773000Y-102423000D01*
X135773000Y-101057750D01*
X136027000Y-101057750D01*
X136027000Y-102423000D01*
X137392250Y-102423000D01*
X137551000Y-102264250D01*
X137551000Y-101407691D01*
X137454327Y-101174302D01*
X137275699Y-100995673D01*
X137042310Y-100899000D01*
X136185750Y-100899000D01*
X136027000Y-101057750D01*
X135773000Y-101057750D01*
X135614250Y-100899000D01*
X134757690Y-100899000D01*
X134524301Y-100995673D01*
X134345673Y-101174302D01*
X134328001Y-101216966D01*
X133991810Y-100992330D01*
X133360000Y-100866655D01*
X132728190Y-100992330D01*
X132192567Y-101350222D01*
X131900053Y-101788000D01*
X128150000Y-101788000D01*
X127858395Y-101846004D01*
X127611184Y-102011185D01*
X126711185Y-102911185D01*
X126546004Y-103158395D01*
X126488000Y-103450000D01*
X120185000Y-103450000D01*
X120185000Y-101881195D01*
X120237709Y-102008761D01*
X120987293Y-102759655D01*
X121967173Y-103166536D01*
X123028172Y-103167462D01*
X124008761Y-102762291D01*
X124759655Y-102012707D01*
X125166536Y-101032827D01*
X125167462Y-99971828D01*
X124762291Y-98991239D01*
X124012707Y-98240345D01*
X123879421Y-98185000D01*
X148518805Y-98185000D01*
X148391239Y-98237709D01*
M02*
